# Blender v2.70 (sub 0) OBJ File: 'PisteTrackSign.blend'
# www.blender.org
o PisteTrackSign
v -0.024700 2.814146 -0.077170
v 0.168288 2.785584 -0.077170
v 0.335656 2.685343 -0.077170
v 0.451924 2.528684 -0.077169
v 0.499390 2.339456 -0.077168
v 0.470828 2.146467 -0.077168
v 0.370587 1.979100 -0.077167
v 0.213928 1.862832 -0.077167
v 0.024700 1.815366 -0.077166
v -0.168288 1.843928 -0.077167
v -0.335656 1.944169 -0.077167
v -0.451924 2.100828 -0.077168
v -0.499390 2.290056 -0.077168
v -0.470828 2.483045 -0.077169
v -0.370587 2.650412 -0.077170
v -0.213928 2.766680 -0.077170
v -0.212262 2.765996 -0.096232
v -0.022970 2.813203 -0.096232
v 0.169979 2.784377 -0.096232
v 0.337210 2.683907 -0.096232
v 0.453262 2.527088 -0.096232
v 0.500469 2.337795 -0.096232
v 0.471643 2.144846 -0.096232
v 0.371173 1.977616 -0.096232
v 0.214355 1.861564 -0.096232
v 0.025062 1.814357 -0.096232
v -0.167887 1.843183 -0.096232
v -0.335118 1.943653 -0.096232
v -0.451170 2.100471 -0.096232
v -0.498377 2.289764 -0.096232
v -0.469551 2.482713 -0.096232
v -0.369081 2.649944 -0.096232
v 0.175127 2.566241 -0.096232
v 0.291179 2.409423 -0.096232
v -0.155078 2.322675 -0.096233
v -0.039024 2.165857 -0.096233
v -0.199175 2.382263 -0.096233
v 0.006290 2.104693 -0.096233
v -0.264840 2.118836 -0.096233
v 0.000000 -0.070360 0.080000
v 0.000000 2.929640 0.080000
v -0.076085 -0.070360 0.024721
v -0.076085 2.929640 0.024721
v -0.047023 -0.070360 -0.064721
v -0.047023 2.929640 -0.064721
v 0.047023 -0.070360 -0.064721
v 0.047023 2.929640 -0.064721
v 0.076085 -0.070360 0.024721
v 0.076085 2.929640 0.024721
vt 0.111696 0.475625
vt 0.039306 0.403235
vt 0.206278 0.514803
vt 0.403235 0.475626
vt 0.308653 0.514803
vt 0.000129 0.308653
vt 0.475625 0.403235
vt 0.000129 0.206278
vt 0.514802 0.308653
vt 0.039306 0.111696
vt 0.514802 0.206278
vt 0.475625 0.111696
vt 0.111696 0.039306
vt 0.403235 0.039306
vt 0.206279 0.000129
vt 0.308654 0.000129
vt 0.500000 1.000000
vt 0.975528 0.654508
vt 0.793893 0.095491
vt 0.206107 0.095492
vt 0.024472 0.654509
vt 0.000000 0.000000
vt 1.000000 0.000000
vt 1.000000 1.000000
vt 0.000000 1.000000
vt 0.475625 0.878991
vt 0.403234 0.951381
vt 0.514802 0.784409
vt 0.206277 0.990559
vt 0.308652 0.990559
vt 0.514802 0.682034
vt 0.111695 0.951381
vt 0.366688 0.753241
vt 0.380343 0.611431
vt 0.475624 0.587451
vt 0.571936 0.591910
vt 0.999871 0.677032
vt 0.515060 0.677031
vt 0.942995 0.591910
vt 0.657058 0.535033
vt 0.857873 0.535033
vt 0.757466 0.515061
vt 0.186693 0.877747
vt 0.339182 0.725734
vt 0.403233 0.515061
vt 0.114303 0.805356
vt 0.039306 0.878991
vt 0.000129 0.784409
vt 0.238529 0.625113
vt 0.238532 0.625115
vt 0.266792 0.653345
vn 0.000000 0.000003 1.000000
vn -0.000000 0.000004 1.000000
vn 0.000000 1.000000 -0.000002
vn 0.000000 -1.000000 -0.000000
vn -0.000000 0.000000 1.000000
vn -0.951056 0.000000 0.309017
vn -0.587785 0.000000 -0.809017
vn 0.587785 0.000000 -0.809017
vn 0.951056 0.000000 0.309017
vn 0.000000 -0.000000 -1.000000
vn -0.000002 -0.000001 -1.000000
vn -0.000005 0.000011 -1.000000
vn -0.000001 -0.000000 -1.000000
vn 0.000003 -0.000002 -1.000000
vn 0.000004 -0.000006 -1.000000
vn -0.000001 -0.000001 -1.000000
vn -0.000000 0.000002 -1.000000
vn 0.000001 0.000001 -1.000000
vn 0.000001 0.000000 -1.000000
vn 0.000000 0.000001 -1.000000
g PisteTrackSign_PisteTrackSign_PisteTrackSignPole
s off
f 16/1/1 15/2/1 1/3/1
f 1/3/2 15/2/2 3/4/2
f 2/5/1 1/3/1 3/4/1
f 3/4/2 15/2/2 14/6/2
f 4/7/2 3/4/2 14/6/2
f 4/7/2 14/6/2 13/8/2
f 5/9/2 4/7/2 13/8/2
f 5/9/2 13/8/2 12/10/2
f 6/11/2 5/9/2 12/10/2
f 7/12/2 6/11/2 12/10/2
f 7/12/2 12/10/2 11/13/2
f 8/14/2 7/12/2 11/13/2
f 8/14/1 11/13/1 10/15/1
f 9/16/2 8/14/2 10/15/2
f 43/17/3 41/18/3 49/19/3 47/20/3 45/21/3
f 40/17/4 42/18/4 44/19/4 46/20/4 48/21/4
s 1
f 40/22/5 41/23/5 43/24/6 42/25/6
f 42/22/6 43/23/6 45/24/7 44/25/7
f 44/22/7 45/23/7 47/24/8 46/25/8
f 48/22/9 49/23/9 41/24/5 40/25/5
f 46/22/8 47/23/8 49/24/9 48/25/9
g PisteTrackSign_PisteTrackSign_PisteTrackSignFront
s off
f 32/26/10 17/27/10 31/28/10
f 17/27/10 19/29/10 31/28/10
f 18/30/10 19/29/10 17/27/10
f 19/29/10 30/31/10 31/28/10
f 20/32/10 30/31/10 19/29/10
f 30/31/11 37/33/11 39/34/11
f 37/33/12 30/31/12 20/32/12
f 29/35/13 30/31/13 39/34/13
f 23/36/10 28/37/10 22/38/10
f 23/36/10 27/39/10 28/37/10
f 24/40/10 27/39/10 23/36/10
f 24/40/10 26/41/10 27/39/10
f 25/42/10 26/41/10 24/40/10
f 33/43/14 35/44/14 37/33/14
f 33/43/15 37/33/15 20/32/15
f 39/34/16 28/45/16 29/35/16
f 34/46/10 21/47/10 22/48/10
f 20/32/10 21/47/10 33/43/10
f 28/45/16 39/34/16 38/49/16
f 38/50/17 36/51/17 34/46/17
f 21/47/10 34/46/10 33/43/10
f 22/48/18 38/50/18 34/46/18
g PisteTrackSign_PisteTrackSign_PisteTrackSignArrow
f 33/43/19 34/46/19 35/44/19
f 34/46/20 36/51/20 35/44/20
f 38/49/16 39/34/16 37/33/16
